<svg width="39" height="35" viewBox="0 0 39 35" fill="none" xmlns="http://www.w3.org/2000/svg">
<mask id="mask0_230_1204" style="mask-type:luminance" maskUnits="userSpaceOnUse" x="0" y="0" width="39" height="35">
<path d="M39 0H0V35H39V0Z" fill="white"/>
</mask>
<g mask="url(#mask0_230_1204)">
<path fill-rule="evenodd" clip-rule="evenodd" d="M19.5162 0C8.72422 0 0 7.88718 0 17.6446C0 25.4443 5.5899 32.0465 13.3446 34.3833C14.3141 34.5589 14.6693 34.0036 14.6693 33.5365C14.6693 33.1274 14.6373 31.7253 14.6373 30.2644C9.20839 31.3162 8.07786 28.1611 8.07786 28.1611C7.2054 26.1161 5.91268 25.5905 5.91268 25.5905C4.1358 24.5096 6.04212 24.5096 6.04212 24.5096C8.01314 24.6265 9.04743 26.3208 9.04743 26.3208C10.7919 29.0082 13.603 28.2489 14.734 27.7814C14.8954 26.6421 15.4127 25.8533 15.962 25.4153C11.632 25.0062 7.07636 23.4872 7.07636 16.7097C7.07636 14.7816 7.85136 13.2042 9.07936 11.9774C8.88558 11.5393 8.2069 9.72774 9.27347 7.30311C9.27347 7.30311 10.9214 6.83565 14.6369 9.11429C16.2277 8.72805 17.8682 8.53161 19.5162 8.52994C21.164 8.52994 22.8438 8.73469 24.395 9.11429C28.111 6.83565 29.7588 7.30311 29.7588 7.30311C30.8254 9.72774 30.1463 11.5393 29.9525 11.9774C31.2128 13.2042 31.9559 14.7816 31.9559 16.7097C31.9559 23.4872 27.4003 24.9768 23.038 25.4153C23.7491 25.9702 24.3626 27.0217 24.3626 28.6869C24.3626 31.0531 24.3306 32.9521 24.3306 33.5361C24.3306 34.0036 24.6862 34.5589 25.6553 34.3836C33.41 32.0462 38.9999 25.4443 38.9999 17.6446C39.0318 7.88718 30.2757 0 19.5162 0Z" fill="#CED4DB"/>
</g>
</svg>
