<svg width="86" height="66" viewBox="0 0 86 66" fill="none" xmlns="http://www.w3.org/2000/svg">
<path d="M79.4057 0.00104117H6.60507C4.83099 0.00104117 3.17571 0.632198 1.95044 1.7727C1.45573 2.22669 1.07803 2.69413 0.81734 3.16314C0.289941 4.03632 0.0120452 5.03841 0.0120452 6.06178V15.2902C0.00860368 15.3218 0 15.3527 0 15.3859V64.1683C0 64.8722 0.621185 65.4433 1.38692 65.4433H84.6122C85.378 65.4433 85.9991 64.8722 85.9991 64.1683L86 15.396V6.0609C86 2.71924 83.042 0 79.4069 0L79.4057 0.00104117ZM3.26381 4.36378C3.41266 4.09724 3.62431 3.83941 3.91771 3.56969C4.6232 2.91244 5.57737 2.551 6.60371 2.551H79.4044C81.5097 2.551 83.2236 4.12571 83.2236 6.06192V14.1111H2.7845V6.06192C2.7845 5.46163 2.9385 4.90242 3.26287 4.36382L3.26381 4.36378ZM83.225 62.8934H2.77485V16.6723H83.225V62.8934Z" fill="white"/>
<path d="M11.3056 8.55158C11.3056 9.2563 10.6853 9.82734 9.91866 9.82734C9.15292 9.82734 8.53174 9.2563 8.53174 8.55158C8.53174 7.84765 9.15292 7.27661 9.91866 7.27661C10.6853 7.27661 11.3056 7.84765 11.3056 8.55158Z" fill="white"/>
<path d="M17.6243 8.55158C17.6243 9.2563 17.0031 9.82734 16.2374 9.82734C15.4708 9.82734 14.8496 9.2563 14.8496 8.55158C14.8496 7.84765 15.4708 7.27661 16.2374 7.27661C17.0031 7.27661 17.6243 7.84765 17.6243 8.55158Z" fill="white"/>
<path d="M23.9433 8.55158C23.9433 9.2563 23.3221 9.82734 22.5564 9.82734C21.7906 9.82734 21.1694 9.2563 21.1694 8.55158C21.1694 7.84765 21.7906 7.27661 22.5564 7.27661C23.3221 7.27661 23.9433 7.84765 23.9433 8.55158Z" fill="white"/>
<path d="M68.6352 29.9655H70.3336C70.7525 29.9655 71.0924 30.2779 71.0924 30.6631C71.0924 31.0483 70.7525 31.3615 70.3336 31.3615H67.0546C66.2889 31.3615 65.6677 31.9325 65.6677 32.6364C65.6677 33.3404 66.2889 33.9114 67.0546 33.9114H68.0974V35.0219C68.0974 35.7258 68.7186 36.2968 69.4843 36.2968C70.2501 36.2968 70.8712 35.7258 70.8712 35.0219V33.8616C72.5636 33.6211 73.8671 32.2853 73.8671 30.6631C73.8671 28.8716 72.2823 27.4148 70.3336 27.4148H68.6352C68.2162 27.4148 67.8764 27.1015 67.8764 26.7164C67.8764 26.3312 68.2162 26.018 68.6352 26.018H71.9142C72.6799 26.018 73.3011 25.447 73.3011 24.743C73.3011 24.0391 72.6799 23.4681 71.9142 23.4681H70.8714V22.3576C70.8714 21.6537 70.2502 21.0826 69.4845 21.0826C68.7187 21.0826 68.0975 21.6537 68.0975 22.3576V23.5179C66.4052 23.7583 65.1025 25.095 65.1025 26.7164C65.1017 28.5078 66.6865 29.9655 68.6352 29.9655Z" fill="#3EAFA4"/>
<path d="M67.9393 50.8163H17.6244V25.5635C17.6244 24.8596 17.0033 24.2886 16.2375 24.2886C15.4718 24.2886 14.8506 24.8596 14.8506 25.5635V50.8163H11.1682C10.4024 50.8163 9.78125 51.3873 9.78125 52.0912C9.78125 52.7952 10.4024 53.3662 11.1682 53.3662H14.8506V56.7514C14.8506 57.4553 15.4718 58.0264 16.2375 58.0264C17.0033 58.0264 17.6244 57.4553 17.6244 56.7514V53.3662H67.9393C68.7051 53.3662 69.3263 52.7952 69.3263 52.0912C69.3263 51.3873 68.7051 50.8163 67.9393 50.8163Z" fill="white"/>
<path d="M49.3033 35.9324C49.003 35.5187 48.467 35.302 47.9353 35.3811C47.4019 35.4578 46.964 35.8129 46.816 36.2907L45.3473 41.0189L40.8348 30.9568C40.655 30.555 40.2644 30.2664 39.7998 30.1881C39.3352 30.1121 38.8594 30.2553 38.5376 30.5732L30.0406 38.9547L27.7185 36.0623C27.4199 35.6898 26.9244 35.4937 26.4253 35.5546C25.9255 35.6131 25.5004 35.9168 25.3137 36.3463L21.8042 44.4216C21.5194 45.0757 21.8662 45.8176 22.5777 46.0786C22.7463 46.1411 22.921 46.1703 23.0922 46.1703C23.6428 46.1703 24.1642 45.8666 24.381 45.3676L26.9664 39.419L28.8007 41.704C29.0459 42.0093 29.4261 42.1983 29.8374 42.2197C30.2512 42.2481 30.6496 42.0947 30.9309 41.8171L39.0933 33.7654L44.3028 45.3809C44.5273 45.8823 45.0831 46.1971 45.663 46.1678C46.2524 46.1378 46.7565 45.7668 46.9192 45.2448L48.6605 39.6395L52.465 44.8769C52.7317 45.2439 53.1903 45.4495 53.6678 45.4424C54.1487 45.4266 54.5858 45.1838 54.8241 44.7986L57.5163 40.4509L61.9714 45.6804C62.3396 46.113 62.9677 46.2815 63.5295 46.0956L69.9503 43.9895C70.6722 43.753 71.0482 43.023 70.7909 42.3602C70.5328 41.6966 69.7396 41.3502 69.0186 41.5875L63.5388 43.3852L58.4256 37.3828C58.14 37.0483 57.6935 36.8648 57.2314 36.8972C56.7703 36.9288 56.3564 37.1685 56.1276 37.5387L53.5233 41.7433L49.3033 35.9324Z" fill="#3EAFA4"/>
<path d="M75.3726 48.4191H76.2975C76.8086 48.4191 77.2224 48.0387 77.2224 47.5689V46.7186C77.2224 46.2488 76.8086 45.8684 76.2975 45.8684H75.3726C74.8616 45.8684 74.4478 46.2488 74.4478 46.7186V47.5689C74.4486 48.0387 74.8624 48.4191 75.3726 48.4191Z" fill="white"/>
<path d="M75.3726 44.5011H76.2975C76.8086 44.5011 77.2224 44.1207 77.2224 43.6509V42.8007C77.2224 42.3309 76.8086 41.9504 76.2975 41.9504H75.3726C74.8616 41.9504 74.4478 42.3309 74.4478 42.8007V43.6509C74.4486 44.1207 74.8624 44.5011 75.3726 44.5011Z" fill="white"/>
<path d="M75.3726 52.3368H76.2975C76.8086 52.3368 77.2224 51.9564 77.2224 51.4866V50.6364C77.2224 50.1666 76.8086 49.7861 76.2975 49.7861H75.3726C74.8616 49.7861 74.4478 50.1666 74.4478 50.6364V51.4866C74.4486 51.9556 74.8624 52.3368 75.3726 52.3368Z" fill="white"/>
</svg>
