<svg width="82" height="56" viewBox="0 0 82 56" fill="none" xmlns="http://www.w3.org/2000/svg">
<path d="M80.6331 48.5665C76.7803 48.5665 74.8137 50.0678 73.0794 51.3913C71.5196 52.5828 70.1718 53.612 67.4174 53.612C64.6631 53.612 63.3167 52.5835 61.7555 51.3925C60.0206 50.0683 58.0546 48.5671 54.2005 48.5671C50.3485 48.5671 48.384 50.0683 46.6504 51.3925C45.0914 52.5834 43.7458 53.612 40.9936 53.612C38.2414 53.612 36.8936 52.5835 35.3345 51.3925C33.601 50.0683 31.6358 48.5671 27.7823 48.5671C23.9309 48.5671 21.9672 50.0683 20.2329 51.3925C18.6739 52.5834 17.3282 53.612 14.5768 53.612C11.8245 53.612 10.4767 52.5835 8.91916 51.3925C7.18564 50.0683 5.21899 48.5671 1.3669 48.5671C0.611749 48.5671 0 49.0533 0 49.6546C0 50.2555 0.611044 50.7422 1.3669 50.7422C4.11911 50.7422 5.46692 51.7707 7.0245 52.9617C8.75801 54.2858 10.7247 55.787 14.5768 55.787C18.4288 55.787 20.3933 54.2858 22.1268 52.9617C23.6859 51.7707 25.0315 50.7422 27.783 50.7422C30.5352 50.7422 31.883 51.7707 33.442 52.9617C35.1756 54.2858 37.1408 55.787 40.9943 55.787C44.8464 55.787 46.8109 54.2858 48.5444 52.9617C50.1034 51.7707 51.4491 50.7422 54.2005 50.7422C56.9547 50.7422 58.302 51.7707 59.8625 52.9628C61.5974 54.287 63.5634 55.7876 67.4162 55.7876C71.2703 55.7876 73.2364 54.2864 74.9712 52.9622C76.5309 51.7713 77.8787 50.7427 80.6331 50.7427C81.3882 50.7427 82 50.2566 82 49.6552C81.9993 49.0533 81.3882 48.5665 80.6331 48.5665Z" fill="#3EAFA4"/>
<path d="M80.6331 36.426C76.7803 36.426 74.8137 37.9273 73.0794 39.2508C71.5196 40.4423 70.1718 41.4715 67.4174 41.4715C64.6631 41.4715 63.3167 40.443 61.7555 39.252C60.0206 37.9278 58.0546 36.4266 54.2005 36.4266C50.3485 36.4266 48.384 37.9278 46.6504 39.252C45.0914 40.4429 43.7458 41.4715 40.9936 41.4715C38.2414 41.4715 36.8936 40.443 35.3345 39.252C33.601 37.9278 31.6358 36.4266 27.7823 36.4266C23.9309 36.4266 21.9672 37.9278 20.2329 39.252C18.6739 40.4429 17.3282 41.4715 14.5768 41.4715C11.8245 41.4715 10.4767 40.443 8.91916 39.252C7.18564 37.9278 5.21899 36.4266 1.3669 36.4266C0.611749 36.4266 0 36.9128 0 37.5141C0 38.1149 0.611044 38.6017 1.3669 38.6017C4.11911 38.6017 5.46692 39.6302 7.0245 40.8212C8.75801 42.1453 10.7247 43.6465 14.5768 43.6465C18.4288 43.6465 20.3933 42.1453 22.1268 40.8212C23.6859 39.6302 25.0315 38.6017 27.783 38.6017C30.5352 38.6017 31.883 39.6302 33.442 40.8212C35.1756 42.1453 37.1408 43.6465 40.9943 43.6465C44.8464 43.6465 46.8109 42.1453 48.5444 40.8212C50.1034 39.6302 51.4491 38.6017 54.2005 38.6017C56.9547 38.6017 58.302 39.6302 59.8625 40.8223C61.5974 42.1464 63.5634 43.6471 67.4162 43.6471C71.2703 43.6471 73.2364 42.1459 74.9712 40.8217C76.5309 39.6308 77.8787 38.6022 80.6331 38.6022C81.3882 38.6022 82 38.1161 82 37.5147C81.9993 36.9122 81.3882 36.426 80.6331 36.426Z" fill="#3EAFA4"/>
<path d="M80.6331 24.2841C76.7803 24.2841 74.8137 25.7854 73.0794 27.1089C71.5196 28.3004 70.1718 29.3296 67.4174 29.3296C64.6631 29.3296 63.3167 28.301 61.7555 27.1101C60.0206 25.7859 58.0546 24.2847 54.2005 24.2847C50.3485 24.2847 48.384 25.7859 46.6504 27.1101C45.0914 28.301 43.7458 29.3296 40.9936 29.3296C38.2414 29.3296 36.8936 28.301 35.3345 27.1101C33.601 25.7859 31.6358 24.2847 27.7823 24.2847C23.9309 24.2847 21.9672 25.7859 20.2329 27.1101C18.6739 28.301 17.3282 29.3296 14.5768 29.3296C11.8245 29.3296 10.4767 28.301 8.91916 27.1101C7.18564 25.7859 5.21899 24.2847 1.3669 24.2847C0.611749 24.2847 0 24.7708 0 25.3722C0 25.973 0.611044 26.4598 1.3669 26.4598C4.11911 26.4598 5.46692 27.4883 7.0245 28.6792C8.75801 30.0034 10.7247 31.5046 14.5768 31.5046C18.4288 31.5046 20.3933 30.0034 22.1268 28.6792C23.6859 27.4883 25.0315 26.4598 27.783 26.4598C30.5352 26.4598 31.883 27.4883 33.442 28.6792C35.1756 30.0034 37.1408 31.5046 40.9943 31.5046C44.8464 31.5046 46.8109 30.0034 48.5444 28.6792C50.1034 27.4883 51.4491 26.4598 54.2005 26.4598C56.9547 26.4598 58.302 27.4883 59.8625 28.6804C61.5974 30.0045 63.5634 31.5052 67.4162 31.5052C71.2703 31.5052 73.2364 30.0039 74.9712 28.6798C76.5309 27.4889 77.8787 26.4603 80.6331 26.4603C81.3882 26.4603 82 25.9742 82 25.3728C81.9993 24.7703 81.3882 24.2841 80.6331 24.2841Z" fill="#3EAFA4"/>
<path d="M80.6331 12.142C76.7803 12.142 74.8137 13.6432 73.0794 14.9668C71.5196 16.1583 70.1718 17.1874 67.4174 17.1874C64.6631 17.1874 63.3167 16.1589 61.7555 14.9679C60.0206 13.6438 58.0546 12.1425 54.2005 12.1425C50.3485 12.1425 48.384 13.6438 46.6504 14.9679C45.0914 16.1589 43.7458 17.1874 40.9936 17.1874C38.2414 17.1874 36.8936 16.1589 35.3345 14.9679C33.601 13.6438 31.6358 12.1425 27.7823 12.1425C23.9309 12.1425 21.9672 13.6438 20.2329 14.9679C18.6739 16.1589 17.3282 17.1874 14.5768 17.1874C11.8245 17.1874 10.4767 16.1589 8.91916 14.9679C7.18564 13.6438 5.21899 12.1425 1.3669 12.1425C0.611749 12.1425 0 12.6287 0 13.2301C0 13.8309 0.611044 14.3176 1.3669 14.3176C4.11911 14.3176 5.46692 15.3461 7.0245 16.5371C8.75801 17.8612 10.7247 19.3625 14.5768 19.3625C18.4288 19.3625 20.3933 17.8612 22.1268 16.5371C23.6859 15.3462 25.0315 14.3176 27.783 14.3176C30.5352 14.3176 31.883 15.3461 33.442 16.5371C35.1756 17.8612 37.1408 19.3625 40.9943 19.3625C44.8464 19.3625 46.8109 17.8612 48.5444 16.5371C50.1034 15.3462 51.4491 14.3176 54.2005 14.3176C56.9547 14.3176 58.302 15.3461 59.8625 16.5382C61.5974 17.8624 63.5634 19.363 67.4162 19.363C71.2703 19.363 73.2364 17.8618 74.9712 16.5377C76.5309 15.3467 77.8787 14.3182 80.6331 14.3182C81.3882 14.3182 82 13.832 82 13.2307C81.9993 12.6287 81.3882 12.142 80.6331 12.142Z" fill="#3EAFA4"/>
<path d="M80.6331 0C76.7803 0 74.8137 1.50124 73.0794 2.82479C71.5196 4.01629 70.1718 5.04544 67.4174 5.04544C64.6631 5.04544 63.3167 4.01692 61.7555 2.82594C60.0206 1.5018 58.0546 0.000575203 54.2005 0.000575203C50.3485 0.000575203 48.384 1.50182 46.6504 2.82594C45.0914 4.01688 43.7458 5.04544 40.9936 5.04544C38.2414 5.04544 36.8936 4.01692 35.3345 2.82594C33.601 1.5018 31.6358 0.000575203 27.7823 0.000575203C23.9309 0.000575203 21.9672 1.50182 20.2329 2.82594C18.6739 4.01688 17.3282 5.04544 14.5768 5.04544C11.8245 5.04544 10.4767 4.01692 8.91916 2.82594C7.18564 1.5018 5.21899 0.000575203 1.3669 0.000575203C0.611749 0.000575203 0 0.48673 0 1.0881C0 1.68892 0.611044 2.17564 1.3669 2.17564C4.11911 2.17564 5.46692 3.20415 7.0245 4.39513C8.75801 5.71927 10.7247 7.2205 14.5768 7.2205C18.4288 7.2205 20.3933 5.71925 22.1268 4.39513C23.6859 3.20419 25.0315 2.17564 27.783 2.17564C30.5352 2.17564 31.883 3.20415 33.442 4.39513C35.1756 5.71927 37.1408 7.2205 40.9943 7.2205C44.8464 7.2205 46.8109 5.71925 48.5444 4.39513C50.1034 3.20419 51.4491 2.17564 54.2005 2.17564C56.9547 2.17564 58.302 3.20415 59.8625 4.39628C61.5974 5.72042 63.5634 7.22107 67.4162 7.22107C71.2703 7.22107 73.2364 5.71983 74.9712 4.3957C76.5309 3.20476 77.8787 2.17621 80.6331 2.17621C81.3882 2.17621 82 1.69005 82 1.08868C81.9993 0.486183 81.3882 0 80.6331 0Z" fill="#3EAFA4"/>
</svg>
