<svg width="93" height="194" viewBox="0 0 93 194" fill="none" xmlns="http://www.w3.org/2000/svg">
<path d="M48.8296 71.6371H57.1704V71.7007H48.8296V71.6371Z" fill="white"/>
<path d="M36.1123 18.3028L32.5674 19.7768C31.7052 20.1579 31.5219 20.8609 32.1503 21.3706C32.6784 21.7851 33.2065 22.1909 33.7346 22.5894H33.7357C34.4039 23.0811 35.6305 23.183 36.5152 22.8204L40.0179 21.3063C40.8996 20.935 41.1076 20.2302 40.4911 19.7132L38.9477 18.5258C38.2708 18.0174 37.0035 17.9174 36.1123 18.3028Z" fill="white"/>
<path d="M44.1168 24.4451L40.5719 25.9351C39.7011 26.3113 39.5038 27.015 40.1278 27.5283C40.6419 27.9348 41.1151 28.3252 41.5182 28.6915H41.5171C42.1444 29.2104 43.3773 29.3482 44.2977 29.0022L47.9676 27.608C48.8762 27.2515 49.123 26.5442 48.5238 26.0148L46.9804 24.6762C46.6538 24.4278 46.1688 24.2635 45.6321 24.2203C45.0953 24.177 44.5501 24.2579 44.1168 24.4451Z" fill="#3EAFA4"/>
<path d="M28.7017 12.0165L24.935 13.3231C23.9866 13.6591 23.688 14.3708 24.2668 14.9169C24.7528 15.3548 25.254 15.8095 25.7821 16.2636V16.2629C26.085 16.5249 26.5581 16.7065 27.0959 16.7683C27.6327 16.8294 28.191 16.7652 28.6458 16.5897L32.2597 15.1633H32.2607C33.1693 14.8069 33.4161 14.0996 32.8158 13.5702C32.3427 13.1637 31.8986 12.7733 31.4254 12.3748H31.4265C30.8251 11.8627 29.6329 11.7058 28.7017 12.0165Z" fill="#3EAFA4"/>
<path d="M31.1214 6.22367L21.3911 0.423558C20.8878 0.122103 20.142 -0.00207387 19.435 0.0980001C18.729 0.198694 18.1697 0.508198 17.9713 0.909727L14.0796 8.65391C13.8781 9.05421 14.0656 9.4854 14.57 9.78501C15.0754 10.084 15.8213 10.2057 16.5261 10.1044L30.1622 8.16031C30.8639 8.05776 31.4168 7.7495 31.6151 7.35044C31.8123 6.95137 31.6247 6.52204 31.1214 6.22367Z" fill="white"/>
<path d="M84.6371 0.359685L74.9068 6.15173C74.4057 6.45319 74.2203 6.88377 74.4207 7.28408C74.6201 7.68438 75.1763 7.99326 75.8801 8.0958C76.4976 8.18291 77.0085 8.43124 77.2596 8.76607C77.5107 9.10089 77.473 9.4839 77.1594 9.80081C73.3474 13.537 69.0826 17.115 64.3985 20.5096C59.9947 23.6589 56.0392 27.0052 52.5688 30.5165C52.3856 30.7241 52.0935 30.8939 51.7346 31.0027L47.6897 32.2215C46.7305 32.5149 46.3393 33.187 46.7995 33.751C47.3492 34.4139 47.8137 35.0977 48.1898 35.7989C48.1963 35.8223 48.1963 35.847 48.1898 35.8705C48.5196 36.5828 48.7341 37.3111 48.829 38.0456V70.4732C48.829 71.1157 49.7375 71.6364 50.8584 71.6364H55.2515C56.3282 71.6024 57.171 71.0916 57.1699 70.4732V38.0456C57.1699 33.9981 63.9253 28.8671 71.0712 23.4334C76.5334 19.3142 82.0795 15.1153 86.0275 10.5019C86.4446 10.0083 87.4038 9.74701 88.335 9.8724L89.4883 10.0398H89.4893C90.191 10.138 90.9325 10.0151 91.4336 9.71611C91.9348 9.41774 92.1202 8.98839 91.9219 8.58995L88.0569 0.845762C87.8586 0.444217 87.2992 0.134728 86.5933 0.0340373C85.8862 -0.0660382 85.1404 0.0582198 84.6371 0.359685Z" fill="#3EAFA4"/>
<path d="M46.7689 116.759C42.1229 116.759 38.4495 119.912 38.4495 123.807C38.4495 127.517 41.1507 129.742 45.0404 130.856L44.7161 137.255L29.4824 137.997C29.0503 137.069 28.6182 136.142 27.1055 136.142C24.1885 136.142 24.1885 140.037 27.1055 140.037C28.6182 140.037 29.0503 139.109 29.4824 138.182L44.6082 138.924L42.4476 176.298C29.2667 174.907 16.8417 170.177 16.8417 157.1L21.1635 158.12L16.9496 155.524L13.1678 157.935L15.869 157.193C15.869 182.418 35.8568 176.762 46.7697 191.414C55.8454 179.173 77.4543 181.955 77.4543 157.007L79.8312 157.657L76.3737 155.524L72.9162 157.657L75.6173 156.915C75.6173 170.084 64.5968 174.906 51.0922 176.298L48.9316 138.924L63.9497 138.182C64.3818 139.11 64.8139 140.037 66.3266 140.037C69.2436 140.037 69.2436 136.142 66.3266 136.142C64.8139 136.142 64.3818 137.07 63.9497 137.997L48.8239 137.255L48.3918 130.856C52.2814 129.743 54.9826 127.517 54.9826 123.807C54.9826 119.913 51.3093 116.759 46.7712 116.759L46.7689 116.759ZM46.7689 119.727C49.3621 119.727 51.5228 121.489 51.5228 123.807C51.5228 126.126 49.3621 127.98 46.7689 127.98C44.0677 127.98 41.9071 126.126 41.9071 123.807C41.9071 121.489 44.0677 119.727 46.7689 119.727Z" fill="#3EAFA4"/>
</svg>
