<svg width="76" height="72" viewBox="0 0 76 72" fill="none" xmlns="http://www.w3.org/2000/svg">
<path d="M58.2657 71.8803H17.7339C7.95526 71.8803 0.000628533 64.3567 0.000628533 55.1083L0 16.772C0 7.52345 7.95479 0 17.7333 0H58.2667C68.043 0 76 7.5236 76 16.772V55.1083C76.0006 64.3564 68.0434 71.8803 58.2667 71.8803H58.2657ZM17.7339 4.79223C10.7497 4.79223 5.06703 10.1667 5.06703 16.7725V55.1088C5.06703 61.7144 10.7489 67.0884 17.7333 67.0884H58.2667C65.2509 67.0884 70.9329 61.7146 70.9329 55.1088L70.9336 16.7725C70.9336 10.1669 65.2517 4.79283 58.2673 4.79283L17.7339 4.79223Z" fill="white"/>
<path d="M27.8664 45.5254C20.8822 45.5254 15.2002 41.2269 15.2002 35.9414C15.2002 30.656 20.8821 26.3574 27.8664 26.3574C34.8508 26.3574 40.5327 30.656 40.5327 35.9414C40.5327 41.2269 34.8508 45.5254 27.8664 45.5254ZM27.8664 31.1495C23.747 31.1495 20.2669 33.3443 20.2669 35.9414C20.2669 38.5386 23.7478 40.7333 27.8664 40.7333C31.9859 40.7333 35.466 38.5386 35.466 35.9414C35.466 33.3443 31.9851 31.1495 27.8664 31.1495Z" fill="#3EAFA4"/>
<path d="M48.1335 45.5254C41.1493 45.5254 35.4673 41.2269 35.4673 35.9414C35.4673 30.656 41.1491 26.3574 48.1335 26.3574C55.1179 26.3574 60.7998 30.656 60.7998 35.9414C60.7998 41.2269 55.1179 45.5254 48.1335 45.5254ZM48.1335 31.1495C44.0141 31.1495 40.534 33.3443 40.534 35.9414C40.534 38.5386 44.0149 40.7333 48.1335 40.7333C52.253 40.7333 55.733 38.5386 55.733 35.9414C55.733 33.3443 52.2522 31.1495 48.1335 31.1495Z" fill="#3EAFA4"/>
</svg>
